<?xml version="1.0" standalone="no"?>
<!DOCTYPE svg PUBLIC "-//W3C//DTD SVG 20010904//EN"
 "http://www.w3.org/TR/2001/REC-SVG-20010904/DTD/svg10.dtd">
<svg version="1.0" xmlns="http://www.w3.org/2000/svg"
 width="355.000000pt" height="355.000000pt" viewBox="0 0 355.000000 355.000000"
 preserveAspectRatio="xMidYMid meet">
<metadata>
Created by potrace 1.11, written by Peter Selinger 2001-2013
</metadata>
<g transform="translate(0.000000,355.000000) scale(0.100000,-0.100000)"
fill="#000000" stroke="none">
<path d="M1760 3515 c-6 -16 -86 -226 -177 -465 -184 -484 -189 -498 -263
-695 -52 -139 -70 -175 -70 -142 0 10 -4 25 -10 35 -5 9 -48 116 -94 237 -46
121 -150 388 -230 594 -80 205 -146 374 -146 375 0 1 -69 1 -152 1 -129 0
-153 -3 -150 -15 6 -26 85 -225 93 -234 5 -6 9 -16 9 -23 0 -7 9 -32 19 -56
10 -23 165 -408 343 -854 177 -447 326 -813 329 -813 3 0 56 136 118 303 63
166 119 316 126 332 23 56 74 190 166 435 50 135 92 246 94 248 1 1 39 -100
84 -225 46 -126 107 -293 136 -373 29 -80 83 -228 120 -330 36 -102 69 -192
74 -200 4 -8 20 -54 36 -102 17 -49 32 -88 35 -88 3 0 27 53 54 118 27 64 57
135 67 157 10 22 41 96 69 165 28 69 57 139 65 155 7 17 72 170 143 340 72
171 198 471 280 667 83 197 153 365 156 375 6 17 -4 19 -147 18 l-154 0 -243
-590 c-134 -324 -251 -607 -261 -628 l-16 -38 -32 88 c-18 48 -62 169 -98 268
-36 99 -82 227 -103 285 -47 129 -103 281 -170 465 -28 77 -59 163 -69 190
l-19 50 -12 -30z"/>
<path d="M1760 2074 c-94 -246 -124 -326 -139 -364 -10 -25 -94 -246 -187
-492 -93 -247 -172 -448 -175 -448 -3 0 -108 264 -233 588 -126 323 -235 603
-243 623 l-14 35 -152 -1 c-127 -1 -151 -3 -149 -15 6 -28 787 -1980 792
-1980 3 0 36 82 74 183 38 100 90 238 116 307 26 69 107 283 180 475 72 193
133 351 134 352 4 4 40 -95 273 -739 114 -318 210 -578 214 -578 3 0 27 53 54
117 26 65 56 136 66 158 10 22 105 249 212 505 107 256 265 631 350 834 86
203 154 372 152 375 -2 4 -69 6 -150 6 -146 0 -146 0 -160 -25 -14 -25 -477
-1145 -497 -1202 -8 -22 -13 -27 -18 -17 -4 8 -67 178 -140 379 -73 201 -154
424 -180 495 -26 72 -74 202 -105 290 -32 88 -60 162 -61 164 -2 2 -8 -9 -14
-25z"/>
</g>
</svg>
